# xmcd
#
# Track frame offsets:
#  182
#  25095
#  51772
#  75057
#  123550
#  144610
#  175140
#  195262
#  220395
#  251902
#
# Disc length: 3666 seconds
#
# Revision: 0
# Processed by: cddbd v1.5.1PL2 Copyright (c) Steve Scherf et al.
# Submitted via: Collectorz.com_Music_Collector 6.11
#
DISCID=830e500a
DTITLE=Jimmy Thackery - Wild Night Out !
DYEAR=1995
DGENRE=Blues Rock
TTITLE0=Wild Night Out
TTITLE1=Riley King - You Upset Me Baby
TTITLE2=Freddie King - The Stumble
TTITLE3=Jimmy Thackery - Pete Ragusa - If You Go
TTITLE4=Empty Arms Motel
TTITLE5=Edward's Blues
TTITLE6=Keith Sykes - Flyin' Low
TTITLE7=Trouble Man
TTITLE8=Jimi Hendrix - Red House
TTITLE9=Jimi Hendrix - I Don't Live Today
EXTD=
EXTT0=
EXTT1=
EXTT2=
EXTT3=
EXTT4=
EXTT5=
EXTT6=
EXTT7=
EXTT8=
EXTT9=
PLAYORDER=
